<mxfile host="app.diagrams.net" modified="2024-03-12T01:08:53.968Z" agent="Mozilla/5.0 (Windows NT 10.0; Win64; x64) AppleWebKit/537.36 (KHTML, like Gecko) Chrome/121.0.0.0 Safari/537.36 Edg/121.0.0.0" etag="9JS4nJCqYEaskjpweP4F" version="24.0.4" type="github">
  <diagram name="第 1 页" id="CZZ1lTcwjY7DJlFlVNr2">
    <mxGraphModel dx="1661" dy="796" grid="1" gridSize="10" guides="1" tooltips="1" connect="1" arrows="1" fold="1" page="1" pageScale="1" pageWidth="827" pageHeight="1169" math="0" shadow="0">
      <root>
        <mxCell id="0" />
        <mxCell id="1" parent="0" />
        <mxCell id="OHSvSKcyMerdm3vtpDN5-3" style="edgeStyle=orthogonalEdgeStyle;rounded=0;orthogonalLoop=1;jettySize=auto;html=1;exitX=0.5;exitY=0;exitDx=0;exitDy=0;entryX=0.5;entryY=1;entryDx=0;entryDy=0;" edge="1" parent="1" source="OHSvSKcyMerdm3vtpDN5-1" target="OHSvSKcyMerdm3vtpDN5-2">
          <mxGeometry relative="1" as="geometry" />
        </mxCell>
        <mxCell id="OHSvSKcyMerdm3vtpDN5-4" style="edgeStyle=orthogonalEdgeStyle;rounded=0;orthogonalLoop=1;jettySize=auto;html=1;exitX=1;exitY=0.5;exitDx=0;exitDy=0;entryX=1;entryY=1;entryDx=0;entryDy=0;" edge="1" parent="1" source="OHSvSKcyMerdm3vtpDN5-1" target="OHSvSKcyMerdm3vtpDN5-2">
          <mxGeometry relative="1" as="geometry" />
        </mxCell>
        <mxCell id="OHSvSKcyMerdm3vtpDN5-5" style="edgeStyle=orthogonalEdgeStyle;rounded=0;orthogonalLoop=1;jettySize=auto;html=1;exitX=0;exitY=0.5;exitDx=0;exitDy=0;entryX=0;entryY=1;entryDx=0;entryDy=0;" edge="1" parent="1" source="OHSvSKcyMerdm3vtpDN5-1" target="OHSvSKcyMerdm3vtpDN5-2">
          <mxGeometry relative="1" as="geometry" />
        </mxCell>
        <mxCell id="OHSvSKcyMerdm3vtpDN5-1" value="" style="rounded=1;whiteSpace=wrap;html=1;" vertex="1" parent="1">
          <mxGeometry x="350" y="380" width="120" height="60" as="geometry" />
        </mxCell>
        <mxCell id="OHSvSKcyMerdm3vtpDN5-2" value="" style="ellipse;whiteSpace=wrap;html=1;" vertex="1" parent="1">
          <mxGeometry x="350" y="180" width="120" height="80" as="geometry" />
        </mxCell>
      </root>
    </mxGraphModel>
  </diagram>
</mxfile>
